{
  "accessors": [
    {
      "bufferView": 2,
      "componentType": 5126,
      "count": 33231,
      "max": [
        26.948535919189453,
        25.060871124267578,
        184.99998474121094
      ],
      "min": [
        -26.948535919189453,
        -25.060871124267578,
        0.0
      ],
      "type": "VEC3"
    },
    {
      "bufferView": 2,
      "byteOffset": 398772,
      "componentType": 5126,
      "count": 33231,
      "max": [
        0.9999382495880127,
        0.9999892115592957,
        0.9998350739479065
      ],
      "min": [
        -0.999899685382843,
        -0.9999972581863403,
        -0.9999905228614807
      ],
      "type": "VEC3"
    },
    {
      "bufferView": 1,
      "componentType": 5126,
      "count": 33231,
      "max": [
        0.9980400204658508,
        0.9904400110244751
      ],
      "min": [
        0.0019499999471008778,
        0.0019499999471008778
      ],
      "type": "VEC2"
    },
    {
      "bufferView": 1,
      "byteOffset": 265848,
      "componentType": 5126,
      "count": 33231,
      "max": [
        0.9980400204658508,
        0.9904400110244751
      ],
      "min": [
        0.0019499999471008778,
        0.0019499999471008778
      ],
      "type": "VEC2"
    },
    {
      "bufferView": 0,
      "componentType": 5125,
      "count": 180018,
      "type": "SCALAR"
    }
  ],
  "asset": {
    "extras": {
      "author": "Leandcoel (https://sketchfab.com/Leandcoel3d)",
      "license": "CC-BY-4.0 (http://creativecommons.org/licenses/by/4.0/)",
      "source": "https://sketchfab.com/3d-models/man-in-a-suit-scanned-model-94a820c49db24189a617a0b48061085a",
      "title": "Man in a suit. Scanned Model."
    },
    "generator": "Sketchfab-11.68.0",
    "version": "2.0"
  },
  "bufferViews": [
    {
      "buffer": 0,
      "byteLength": 720072,
      "name": "floatBufferViews",
      "target": 34963
    },
    {
      "buffer": 0,
      "byteLength": 531696,
      "byteOffset": 720072,
      "byteStride": 8,
      "name": "floatBufferViews",
      "target": 34962
    },
    {
      "buffer": 0,
      "byteLength": 797544,
      "byteOffset": 1251768,
      "byteStride": 12,
      "name": "floatBufferViews",
      "target": 34962
    }
  ],
  "buffers": [
    {
      "byteLength": 2049312,
      "uri": "scene.bin"
    }
  ],
  "extensionsUsed": [
    "KHR_materials_unlit"
  ],
  "images": [
    {
      "uri": "textures/GTP_BMan_Jack_07_Stg_Lsn_Adl_Ccs_Gry_Mgr_BlendMaterial_baseColor.jpeg"
    }
  ],
  "materials": [
    {
      "doubleSided": true,
      "extensions": {
        "KHR_materials_unlit": {}
      },
      "name": "GTP_BMan_Jack_07_Stg_Lsn_Adl_Ccs_Gry_Mgr_BlendMaterial",
      "pbrMetallicRoughness": {
        "baseColorTexture": {
          "index": 0
        },
        "metallicFactor": 0.0
      }
    }
  ],
  "meshes": [
    {
      "name": "GTP_BMan_Jack_07_Stg_Lsn_Adl_Ccs_Gry_Mgr_GTP_BMan_Jack_07_Stg_Lsn_Adl_Ccs_Gry_Mgr_BlendMaterial_0",
      "primitives": [
        {
          "attributes": {
            "NORMAL": 1,
            "POSITION": 0,
            "TEXCOORD_0": 2,
            "TEXCOORD_1": 3
          },
          "indices": 4,
          "material": 0,
          "mode": 4
        }
      ]
    }
  ],
  "nodes": [
    {
      "children": [
        1
      ],
      "matrix": [
        1.0,
        3.110325099350288e-16,
        -8.326672684688667e-17,
        0.0,
        -8.326672684688674e-17,
        3.828568672208042e-16,
        -1.0,
        0.0,
        -3.110325099350288e-16,
        1.0,
        3.828568672208042e-16,
        0.0,
        2.877048371676544e-14,
        4.486231119800246e-30,
        -2.020418879943031e-14,
        1.0
      ],
      "name": "Sketchfab_model"
    },
    {
      "children": [
        2
      ],
      "matrix": [
        1.0,
        0.0,
        0.0,
        0.0,
        0.0,
        0.0,
        1.0,
        0.0,
        0.0,
        -1.0,
        0.0,
        0.0,
        0.0,
        0.0,
        0.0,
        1.0
      ],
      "name": "GTP_BMan_Jack_07_Stg_Lsn_Adl_Ccs_Gry_Mgr.fbx"
    },
    {
      "children": [
        3
      ],
      "name": "RootNode"
    },
    {
      "children": [
        4
      ],
      "matrix": [
        1.0,
        0.0,
        0.0,
        0.0,
        0.0,
        2.220446049250313e-16,
        -1.0,
        0.0,
        0.0,
        1.0,
        2.220446049250313e-16,
        0.0,
        0.0,
        0.0,
        0.0,
        1.0
      ],
      "name": "GTP_BMan_Jack_07_Stg_Lsn_Adl_Ccs_Gry_Mgr"
    },
    {
      "mesh": 0,
      "name": "GTP_BMan_Jack_07_Stg_Lsn_Adl_Ccs_Gry_Mgr_GTP_BMan_Jack_07_Stg_Lsn_Adl_Ccs_Gry_Mgr_BlendMaterial_0"
    }
  ],
  "samplers": [
    {
      "magFilter": 9729,
      "minFilter": 9987,
      "wrapS": 10497,
      "wrapT": 10497
    }
  ],
  "scene": 0,
  "scenes": [
    {
      "name": "Sketchfab_Scene",
      "nodes": [
        0
      ]
    }
  ],
  "textures": [
    {
      "sampler": 0,
      "source": 0
    }
  ]
}
